<?xml version="1.0" standalone="no"?>
<!DOCTYPE svg PUBLIC "-//W3C//DTD SVG 20010904//EN"
 "http://www.w3.org/TR/2001/REC-SVG-20010904/DTD/svg10.dtd">
<svg version="1.0" xmlns="http://www.w3.org/2000/svg"
 width="500.000000pt" height="500.000000pt" viewBox="0 0 500.000000 500.000000"
 preserveAspectRatio="xMidYMid meet">
<metadata>
Created by potrace 1.11, written by Peter Selinger 2001-2013
</metadata>
<g transform="translate(0.000000,500.000000) scale(0.100000,-0.100000)"
fill="#000000" stroke="none">
<path d="M1368 4792 l-118 -3 -2 -207 -3 -207 -125 0 c-69 -1 -150 -7 -180
-14 -109 -26 -219 -114 -267 -213 -49 -99 -47 -29 -47 -1648 l0 -1525 22 -65
c41 -122 136 -216 260 -260 l67 -24 1505 -1 c828 0 1527 3 1555 8 166 29 305
172 333 342 4 28 7 725 7 1550 -1 1185 -4 1508 -14 1540 -45 142 -130 233
-266 285 -50 18 -84 23 -195 25 -74 2 -138 3 -142 4 -5 1 -8 93 -8 206 l0 205
-47 0 c-191 2 -355 0 -362 -4 -4 -3 -8 -85 -9 -183 0 -98 -1 -189 -1 -203 l-1
-25 -830 0 c-731 0 -830 2 -831 15 0 8 -1 101 -1 207 l-1 192 -91 3 c-50 2
-144 2 -208 0z m1273 -1059 c171 -39 318 -151 406 -309 38 -68 50 -103 67
-194 58 -312 -142 -621 -459 -709 -84 -24 -244 -23 -325 2 -215 66 -380 236
-434 447 -101 394 194 777 600 778 44 0 109 -6 145 -15z m19 -1638 c36 -4 112
-15 170 -26 452 -87 780 -261 883 -469 31 -62 32 -70 35 -207 l4 -143 -1252 0
-1252 0 4 143 c3 137 4 145 35 207 85 172 316 316 672 420 41 12 83 24 95 26
12 2 44 8 71 14 28 6 61 13 75 15 136 28 299 35 460 20z"/>
</g>
</svg>
